<svg id="Calque_1" data-name="Calque 1" xmlns="http://www.w3.org/2000/svg" xmlns:xlink="http://www.w3.org/1999/xlink" viewBox="0 0 260 260"><defs><style>.cls-1{fill:none;}.cls-2{fill:#0e0e0e;}.cls-3{clip-path:url(#clip-path);}.cls-4{fill:#fff;}</style><clipPath id="clip-path" transform="translate(-590 -320)"><rect class="cls-1" x="590" y="320" width="260" height="260"/></clipPath></defs><title>Logo_A</title><rect class="cls-2" width="260" height="260"/><g class="cls-3"><path class="cls-4" d="M735,482.58V485H709.58v-2.42h1.65a11.8,11.8,0,0,0,4.29-.77c1.32-.51,1.83-1.17,1.54-2l-6.71-18.7H679l-6.16,16.61a6.26,6.26,0,0,0-.22,1.1,3.08,3.08,0,0,0,1.87,2.7,8.08,8.08,0,0,0,4,1h1.87V485H657.55v-2.42h1.65a9.92,9.92,0,0,0,4.51-1.16,5.8,5.8,0,0,0,3-2.69l26.07-69.19,6.16-2.86,27.17,72.05a5.28,5.28,0,0,0,2.8,2.81,9.73,9.73,0,0,0,4.24,1Zm-26-25.3L695,418.12l-14.52,39.16Z" transform="translate(-590 -320)"/><path class="cls-4" d="M709.63,482.58h3.19q6.49,0,6.49-3.85V414.38q0-3.86-6.49-3.85h-3.19V408h33.55q16.61,0,25,9.9t8.41,28.6q0,18.81-8.47,28.66T743.07,485H709.63Zm33.22-1.21q12.64,0,19-9.19t6.38-25.68q0-16.5-6.32-25.63t-18.87-9.13h-15.4v69.63Z" transform="translate(-590 -320)"/></g></svg>